<svg xmlns="http://www.w3.org/2000/svg" xmlns:xlink="http://www.w3.org/1999/xlink" xml:space="preserve" width="512" height="512" viewBox="0 0 512 512">
  <defs>
    <linearGradient id="e">
      <stop offset="0" stop-color="#b880ff"/>
      <stop offset="1" stop-color="#f1b5ff"/>
    </linearGradient>
    <linearGradient id="d">
      <stop offset="0" stop-color="#b880ff"/>
      <stop offset="1" stop-color="#fea2ff"/>
    </linearGradient>
    <linearGradient id="b">
      <stop offset="0" stop-color="#9894ea"/>
      <stop offset="1" stop-color="#a291ee"/>
    </linearGradient>
    <linearGradient id="j">
      <stop offset="0" stop-color="#ac00c5"/>
      <stop offset=".55474043" stop-color="#450364"/>
      <stop offset="1" stop-color="#030644"/>
    </linearGradient>
    <linearGradient id="i">
      <stop offset="0" stop-color="#b8d"/>
      <stop offset="1" stop-color="#eacffc"/>
    </linearGradient>
    <linearGradient id="a">
      <stop offset="0" stop-color="#e8daf1"/>
      <stop offset="1" stop-color="#efe5ff"/>
    </linearGradient>
    <linearGradient xlink:href="#a" id="m" x1="41.277992" x2="366.98316" y1="271.88268" y2="271.88268" gradientUnits="userSpaceOnUse"/>
    <linearGradient xlink:href="#b" id="r" x1="137.64633" x2="320.83768" y1="291.6998" y2="91.050888" gradientUnits="userSpaceOnUse"/>
    <linearGradient xlink:href="#d" id="y" x1="182.36505" x2="254.93274" y1="134.09447" y2="152.79369" gradientUnits="userSpaceOnUse"/>
    <linearGradient xlink:href="#e" id="w" x1="179.04704" x2="232.54764" y1="164.6198" y2="208.77075" gradientUnits="userSpaceOnUse"/>
    <clipPath id="k" clipPathUnits="userSpaceOnUse">
      <use xlink:href="#f"/>
    </clipPath>
    <clipPath id="q" clipPathUnits="userSpaceOnUse">
      <use xlink:href="#g"/>
    </clipPath>
    <clipPath id="t" clipPathUnits="userSpaceOnUse">
      <use xlink:href="#h"/>
    </clipPath>
    <radialGradient xlink:href="#i" id="l" cx="225.05011" cy="449.44122" r="144.72098" fx="225.05011" fy="449.44122" gradientTransform="matrix(1.6640065 -.18199605 .31213479 2.853877 -288.97052 -772.04423)" gradientUnits="userSpaceOnUse"/>
    <radialGradient xlink:href="#j" id="u" cx="251.91803" cy="125.38225" r="127.08069" fx="251.91803" fy="125.38225" gradientTransform="matrix(-1.1470651 -.01843819 .01765476 -1.0983267 525.06132 262.09102)" gradientUnits="userSpaceOnUse"/>
  </defs>
  <path fill-rule="evenodd" d="M417.84913412 4.86159383c-12.33728298-.4060677-15.65990553 1.97337799-22.49290253 4.094404-6.83298723 2.121026-14.37562195 4.8501728-22.32563532 7.91979136-15.90002673 6.13923712-33.17181457 13.5756494-46.14511932 19.66878472-18.49100298 8.68461076-41.2452245 21.79039587-61.94812463 34.1155834-29.19631946 2.33894228-59.8194557 6.64670453-89.3462947 18.77969351-21.60919867 8.87950837-35.57191297 23.439219-47.0402817 34.64598546-11.46836875 11.20676645-20.4179119 19.2207151-29.49068554 23.0877791-18.41519692 7.84907473-59.60580536 11.4066216-85.73147763 47.82592866C-2.5570913 217.14429476-.89269485 240.3970357 1.8816579 257.78930906c2.3589652 14.78822679 10.20036527 27.84692838 18.37062275 36.82483945.12402957.3114806.16536332.508835.3021858.83757666 7.12507723 17.1192028 20.70235016 26.42094194 32.16854832 32.27443473 10.02599162 5.11827119 19.4021946 8.07708291 27.40769345 10.55845581 3.5736699 1.98792339 8.27008737 3.6594819 14.41369788 4.13255417 16.59285958 4.05030281 34.02839794 5.09712224 49.13086983 5.66081753 13.27050371.49530554 22.49712256.38198036 26.25217036.31862142 9.09714623 6.38941604 16.76163408 14.02713801 15.75928119 12.01610219 8.3921388 16.83712558 1.43734728 45.76450656-5.76054486 84.34549055-3.2122084 17.21751367-5.62559206 32.55871962-5.62559206 32.55871962a29.88689381 30.0030001 0 0 0 29.51728534 34.68223076h234.64641707a29.88689381 30.0030001 0 0 0 29.88220978-29.83801678s.54726456-56.7942177-2.39659149-88.90923913c-3.41085226-37.20959408-7.25451076-77.71201658-22.08428327-117.3258607-3.81158829-10.1816528-8.99824923-20.82581803-14.6493568-31.47501409.85309892-.61698283 1.40212182-1.20614479 2.47069585-1.78582146 2.68666915-1.45744123 5.3825403-3.00241861 8.14571688-4.53131693 5.5263434-3.0578064 11.95672882-5.9735485 12.67469913-6.1931264-1.2897735.39443528 4.37650465-.42547005 11.41086117-.63151848 3.51715384-.1030291 7.47400075-.17884296 12.53974635-.94633015 5.06576513-.76748718 11.99301905-1.44584594 20.80901609-8.83749765 13.14078687-11.01771533 11.90418369-19.64962368 12.41053748-25.52611168s.08205598-10.73313737-.71460992-15.69458395c-1.40559944-8.75347819-1.81980631-17.1393065-10.85968919-27.73358366 2.02713443-1.74260531 4.08581157-3.7958609 6.16916411-6.54226484 10.59447253-13.9662603 7.5199521-22.64062284 6.62148794-29.14353012-.8984837-6.50291704-2.61309229-11.92943544-4.80456336-17.37546167-4.3829812-10.89206906-7.74164978-21.615094-24.30982711-31.73258878-7.37240763-4.50203272-11.57915408-5.64408886-15.0769857-5.98706528 3.17189353-13.58156133-1.69827553-19.62631392-4.19448689-24.41760667-2.72294962-5.22647373-5.68333408-9.09238698-9.01426968-12.84414278-6.66185167-7.50351062-11.95948356-15.30896381-29.80047617-18.98384097-2.53609642-.52238988-4.36258444-.63427516-5.84415404-.68303595m-42.3877466 75.77891244a29.88689381 30.0030001 0 0 0 28.6031231 40.65594435c5.2401927-.23621377 9.64423494-.1990639 14.67787125-.33197506-6.2728184 4.1985604-11.48835523 8.67976457-16.32373843 12.90328366a29.88689381 30.0030001 0 0 0 10.67534652 50.58859728c-.65972033.36699538-1.47379382.77663057-2.11151533 1.12949083-2.13580976 1.1817722-3.57212158 1.98678047-5.14665865 2.86569772-.9838903-.0272543-1.56121275-.03125942-2.76148663-.07248278-5.77252112-.19834104-13.82955893-.55242237-22.96042625-.99021057a29.88689381 30.0030001 0 0 0-26.67597974 46.01149507c13.91731975 22.07337178 28.83117034 48.5447586 34.47960132 63.63306607 11.19501486 29.90457004 15.14693842 64.97175081 18.51506296 101.71522784 1.19965846 13.08731373 1.6913887 34.68339321 1.92524825 53.25205632H239.4986205c6.64631965-32.8834171 21.16586193-75.24682043-.36109516-118.43627351-11.94280861-23.96078637-30.64988257-32.80851171-45.74981464-41.3370686a29.88689381 30.0030001 0 0 0-14.65316654-3.85400341h-6.2622781a29.88689381 30.0030001 0 0 0-.72980982.00976857s-11.41646833.27525874-25.84544621-.26329225-32.31853004-2.42967763-39.5084315-4.44546098a29.88689381 30.0030001 0 0 0-2.48970548-.34342382 29.88689381 30.0030001 0 0 0-2.45931547-1.18673464c-8.59931259-2.67392117-16.7171236-5.39557157-21.62433996-7.9007114-2.80765777-1.4333031-3.93526912-2.4353141-4.30662421-2.72641746-.12281143-.38378755-.00146529-.03223628-.15394484-.63725262a29.88689381 30.0030001 0 0 0-10.72094815-16.39885872c-4.52710668-3.50481613-2.72365198.16948468-3.73646213-6.179763-1.3903507-8.71603527.91063092-18.20908207.93126507-18.23784074 5.92017206-8.2527511 30.7071-14.92638366 60.58923262-27.66298621 21.86384574-9.31898067 36.29155371-24.05264999 47.82139605-35.31948337 11.52983258-11.26683339 20.18610374-18.90484842 27.99306617-22.1128368 22.19060439-9.11843195 49.24813468-13.06382033 78.0608815-15.0935825a29.88689381 30.0030001 0 0 0 13.23536616-4.17262484c21.43877622-12.8583873 46.84270263-27.3711209 62.68552462-34.8119769 6.50554479-3.05544338 14.727056-6.65226479 23.24741705-10.24936753m80.33583475 41.13674357c.95441853.39811804.4379738.13907512 0 0m-4.60120128 1.8182531c.16346724.58696403.52672126 1.7404367.49794305 1.53206334-.0177788-.12810502-.28299545-.69596172-.49794305-1.53206334m-40.47390804 64.83315435c.40099977-.00097685.17580494.12608293.18245734.12591686.01055005-.00024421-.4617505.00039074-.9407816-.00195371.12964845-.0116246.68118187-.12380685.75832426-.124012zm45.5844523 6.38009683c.1884064.06203041.70293647.18881667.86285772.24421423 1.32796862.46005077 2.24868558 2.30139678-.86285773-.24421423M97.4047184 282.70107542a29.88689381 30.0030001 0 0 0-7.06050698.96349353c1.81143758-.50564069 4.12545046-.94949517 7.06050698-.96349353m4.46626803.35105307c.28482218.04454468.60112845.06652396.8666577.1182876a29.88689381 30.0030001 0 0 0-.8666577-.1182876m2.81281069.6582355c2.57943956.80340622 4.063549 1.83635428 4.69242018 2.26470604a29.88689381 30.0030001 0 0 0-4.69242018-2.26470603" overflow="visible" paint-order="markers stroke fill"/>
  <g stroke-linecap="round" stroke-linejoin="round" clip-path="url(#k)" transform="translate(.3946175 11.88847642)scale(.97685693)">
    <path id="f" fill="url(#l)" fill-rule="evenodd" d="m158.18079 302.05859 197.11512-139.57565s54.12673 75.593 70.29504 118.61527c13.37242 35.5827 17.37945 74.26032 20.86272 112.11288 2.65326 28.83292 2.33484 88.03802 2.33484 88.03802H207.65209s2.42592-15.35533 5.63146-32.47062c6.89451-36.81186 18.97737-74.20433 3.19817-105.73956-10.62947-21.24333-58.30089-40.98034-58.30089-40.98034z"/>
    <path fill="none" stroke="#8765b8" stroke-width="13.0182" d="M356.23928 311.33279c-53.96941 60.05574-178.7188 57.32608-198.92658 15.65321m213.38829 66.39829c-62.00104 53.7301-204.97277 47.18128-198.92658 15.65321"/>
    <g fill="#c6b6ed" fill-rule="evenodd" stroke="#a284c8" stroke-width="20">
      <path d="M368.50502 318.76921c-26.82969 2.95572-47.46829-13.80383-44.66933-40.19593l23.28168-152.70811L452.136 295.59922"/>
      <path d="M396.04225 407.52882c-27.5199 8.09112-57.64556-36.37656-42.60566-73.86943 5.41444-13.49763 25.82101-17.79932 41.32515-23.38797 7.07222-12.11412 8.92476-19.43208 31.11682-65.42504l47.37026 117.3891"/>
      <path d="M424.06476 490.43159c-36.75932 8.09112-54.6588-32.02173-39.6189-69.5146 5.41444-13.49763 25.82101-17.79932 41.32515-23.38797 7.07222-12.11412 8.92476-19.43208 31.11682-65.42504l38.45527 153.05601"/>
    </g>
  </g>
  <path fill="url(#m)" fill-rule="evenodd" d="m47.277992 229.8898 302.644748-10.47053s16.45905 9.23667 16.15728 13.68483c-5.44917 80.3215-97.43253 80.64248-97.43253 80.64248h-96.25368s-53.24657 1.29937-78.200949-6.54446c-18.227319-5.72933-42.664323-12.20095-49.582735-28.75928-1.705933-4.08293-3.332134-12.75649-3.332134-12.75649z" transform="translate(3.36667101 11.88847642)scale(.97685693)"/>
  <path fill="#715aac" fill-rule="evenodd" d="M265.92813923 146.12997074s84.4115163.16646619 126.14241454 5.64993534c27.61435827 3.6285546 76.05721117 12.5672351 81.60382435 17.95234453 6.12620194 5.94779856 8.97166896 25.38673373 4.92242115 28.76863196-5.48427018 4.58041376-23.35749906 1.36482543-34.44419026 4.7421715-11.05565646 3.36789987-27.79374828 14.53730155-31.15066828 15.22393428-4.77235638.9762122-129.89066343-6.25482469-129.89066343-6.25482469s-26.0461317-67.02480125-17.18313807-66.08219292"/>
  <path fill="#715aac" fill-rule="evenodd" d="M230.1394617 126.83987926s71.2353086-45.2864367 109.35892817-63.1225499c25.22733022-11.80258861 70.8675122-30.3385866 78.44047833-28.78474326 8.36429839 1.71620673 21.22378954 16.56888653 19.6309071 21.59842297-2.15738853 6.81198383-18.95222598 13.72037172-26.47903562 22.53334147-7.50572906 8.78830217-15.60242726 27.21011144-18.06226047 29.59538115-3.49700128 3.39108068-112.8436406 64.62988019-112.8436406 64.62988019s-58.02277157-42.47450127-50.0453769-46.44973262"/>
  <g stroke="#b2b2b2" stroke-width="1.0148" clip-path="url(#q)" transform="translate(3.89815874 13.0359248)scale(.96260638)">
    <path id="g" fill="url(#r)" fill-rule="evenodd" stroke="none" stroke-width="1.0148" d="M451.52734 80.507812c-24.51778-.2009-58.66631 1.671212-81.67382 3.828126-55.2834 7.106276-124.26316.900093-180.40034 23.878362-30.67757 12.55705-47.17636 46.12215-79.43961 59.82044-25.184199 10.69267-59.587832 16.00552-76.297848 39.20922-8.294217 11.51743-8.62486 28.52631-6.453213 42.08757 2.366471 14.77787 9.000227 21.41037 17.955193 27.90064 5.275208 3.8233 18.911369 4.9365 18.911369 4.9365s4.480992.7655 6.356028 1.94611c.699107.44019 1.678577 1.82347 1.678577 1.82347s14.767773 25.35864 24.076568 25.35864c5.925656 0 23.113546-22.50527 23.113546-22.50527s1.73622-2.26519 2.98274-2.84096c1.33058-.61459 4.37306-.45801 4.37306-.45801l42.73566-.0124s4.38808.1583 6.51901-.27716c1.88188-.38456 5.3916-2.03348 5.3916-2.03348l31.57283-16.54926s2.54477-1.31689 3.92463-1.64641c1.6891-.40337 5.19643-.37283 5.19643-.37283l42.43643-.009s10.37723.42564 15.26819-1.02234c3.03937-.89981 3.73418-1.28447 8.30476-4.6323s10.62032-7.74898 16.53694-11.96225c12.45239-8.86745 66.39555-11.37118 66.39555-11.37118s.45956-5.70447.45956-11.99107c0-20.22039.8018-24.83391-3.48047-39.39258-.9546-3.2454-2.02191-6.57129-3.1289-9.88281 26.75468-4.74239 49.72948-8.9362 51.77734-9.86523 4.14229-1.87919 22.51242-21.27352 35.82813-28.89454 13.35311-7.64239 37.43474-8.7542 43.18164-16.30078 4.24314-5.57191-5.17533-29.892435-14.85938-35.783199-3.28796-2.00005-14.53151-2.865788-29.24219-2.986329z"/>
    <path fill="#706afb" fill-rule="evenodd" stroke="#cd58cc" stroke-opacity=".7" stroke-width="6.54647" d="M460.78267 59.829551c-.43273-.03824-.87016-.05454-1.30849-.04703-7.01298.119534-11.85584 6.174535-10.85845 13.575913l2.85435 21.179694c.9974 7.401382 7.44675 13.263992 14.45973 13.144462s11.85586-6.17452 10.85846-13.575904l-2.85434-21.179704c-.93507-6.938791-6.6606-12.524729-13.15126-13.097392zm-41.75001 2.201008c-.43272-.03824-.87016-.05454-1.30849-.04703-7.01298.119534-11.85584 6.174535-10.85844 13.575914l2.8542 21.181721c.99739 7.401376 7.44689 13.261976 14.45987 13.142436 7.01298-.11953 11.85573-6.1725 10.85833-13.573888l-2.85422-21.181719c-.93507-6.93879-6.66059-12.524729-13.15125-13.097391zm-41.47581 2.691176c-.43272-.03824-.87017-.05454-1.30849-.04703-7.01298.119534-11.85586 6.174524-10.85846 13.575903l2.85436 21.179688c.9974 7.401404 7.44675 13.264004 14.45973 13.144464 7.01298-.11953 11.85585-6.17452 10.85846-13.5759l-2.85435-21.179691c-.93506-6.938801-6.66059-12.524739-13.15124-13.097401Z"/>
    <g clip-path="url(#t)">
      <path id="h" fill="url(#u)" fill-rule="evenodd" stroke="none" stroke-linecap="round" stroke-linejoin="round" d="M278.10887 28.474566 65.046386 87.987127S66.328059 175.63526 75.48686 210.12157c8.511765 34.51906 19.486615 40.54899 36.44211 42.28074 30.8309 3.14892 188.2345-36.79357 203.76122-57.00478 17.77233-23.13434-37.58132-166.922964-37.58132-166.922964"/>
    </g>
    <path fill="url(#w)" fill-rule="evenodd" stroke="none" d="M210.9983 152.10434c-6.33314.13134-13.08092 2.13268-19.52812 5.37038 2.09233 2.02768 3.39298 4.86632 3.39298 8.02358v34.08773c0 6.18783-4.98079 11.16863-11.16863 11.16863s-11.16863-4.9808-11.16863-11.16863v-27.93558c-11.28327 12.03585-16.88659 27.28167-8.13555 38.68234 14.3281 18.66634 53.49531 9.45689 69.9729-4.78256 14.81362-12.80149 11.26074-44.89482-15.10144-52.43619-2.62393-.75062-5.40149-1.06905-8.26351-1.0097" transform="translate(4.9345195 -1.8179809)"/>
    <path fill="none" stroke="url(#y)" stroke-linecap="round" stroke-linejoin="bevel" stroke-width="10.3885" d="M187.2996 138.59305s42.45322-1.93321 61.91947 9.82" paint-order="markers stroke fill" transform="translate(4.9345195 -1.8179809)"/>
    <g fill-opacity=".9" fill-rule="evenodd" stroke="none" transform="rotate(14.011399 -5.95341178 -1.81523312)">
      <circle cx="116.02739" cy="212.23553" r="8.1895313"/>
      <circle cx="85.812836" cy="223.02644" r="8.1895313"/>
      <circle cx="96.129059" cy="190.22473" r="8.1895313"/>
    </g>
  </g>
</svg>
