<svg xmlns="http://www.w3.org/2000/svg" xmlns:xlink="http://www.w3.org/1999/xlink" xml:space="preserve" width="512" height="512"><defs><linearGradient id="c"><stop offset="0" style="stop-color:#202026;stop-opacity:1"/><stop offset="1" style="stop-color:#34343e;stop-opacity:1"/></linearGradient><linearGradient id="b"><stop offset="0" style="stop-color:#202026;stop-opacity:1"/><stop offset="1" style="stop-color:#383843;stop-opacity:1"/></linearGradient><linearGradient id="g"><stop offset="0" style="stop-color:#242424;stop-opacity:1"/><stop offset="1" style="stop-color:#474747;stop-opacity:1"/></linearGradient><linearGradient id="a"><stop offset="0" style="stop-color:#424242;stop-opacity:1"/><stop offset="1" style="stop-color:#525252;stop-opacity:1"/></linearGradient><linearGradient id="d"><stop offset="0" style="stop-color:#ccc;stop-opacity:1"/><stop offset="1" style="stop-color:#f7f7f7;stop-opacity:1"/></linearGradient><linearGradient xlink:href="#a" id="j" x1="41.278" x2="366.983" y1="271.883" y2="271.883" gradientUnits="userSpaceOnUse"/><linearGradient xlink:href="#b" id="n" x1="104.883" x2="131.463" y1="254.656" y2="132.872" gradientTransform="translate(.436 -1.744)" gradientUnits="userSpaceOnUse"/><linearGradient xlink:href="#c" id="m" x1="212.845" x2="275.596" y1="245.785" y2="82.997" gradientUnits="userSpaceOnUse"/><linearGradient xlink:href="#d" id="l" x1="205.962" x2="209.182" y1="321.817" y2="96.927" gradientUnits="userSpaceOnUse"/><clipPath id="h" clipPathUnits="userSpaceOnUse"><use xlink:href="#e"/></clipPath><clipPath id="k" clipPathUnits="userSpaceOnUse"><use xlink:href="#f"/></clipPath><radialGradient xlink:href="#g" id="i" cx="225.05" cy="449.441" r="144.721" fx="225.05" fy="449.441" gradientTransform="matrix(1.664 -.182 .31213 2.85388 -288.97 -772.044)" gradientUnits="userSpaceOnUse"/><filter id="o" width="1.549" height="1.662" x="-.274" y="-.331" style="color-interpolation-filters:sRGB"><feGaussianBlur stdDeviation="9.479"/></filter></defs><g style="display:inline"><path d="M384.788 26.204c-2.53-.144-4.302.183-6.238.258-3.872.151-7.356.557-11.079 1.086-7.445 1.058-15.67 2.683-24.46 4.62-17.581 3.875-37.028 8.987-51.639 13.35-46.628 13.924-124.147 48.926-124.147 48.926l3.154-1.212c-4.867 1.585-10.136 5.705-14.414 10.653-20.899 9.516-39.795 20.473-57.555 28.651-19.317 8.896-57.24 13.005-81.213 46.846C-.54 204.418-2.593 234.688 3.5 260.994c2.463 10.633 7.344 20.125 14.561 27.993.087.198.15.37.238.57 3.568 8.057 6.032 17.916 20.828 28.597 41.272 29.796 90.866 25.328 125.16 25.329 10.125 0 19.447 5.9 24.023 13.652 8.44 16.869 1.422 46.282-5.988 85.846-3.271 17.466-5.742 32.296-5.742 32.296-3.201 19.22 11.636 36.707 31.12 36.679l238.764-.38c16.81-.028 30.637-13.25 31.417-30.041 0 0 3.123-56.6-.062-91.21-3.506-38.098-7.453-79.629-22.741-120.308-9.542-25.389-26.408-53.406-41.838-77.633 1.11-.222 2.648-.505 3.61-.706 1.59-.332 2.959-.63 4.308-.957 1.35-.328 1.079.302 6.408-2.116 9.942-4.51 9.11-5.916 11.988-8.437 2.878-2.521 5.945-5.333 9.168-8.204 6.444-5.742 14.082-11.78 16.889-13.386 1.196-.685 9.066-3.24 17.92-5.532 4.427-1.146 9.16-2.355 14.484-4.445 5.324-2.089 12.043-4.535 18.694-13.27 9.553-12.545 6.858-20.59 5.996-26.808-.862-6.216-2.544-11.57-4.714-16.942-4.341-10.746-8.034-21.349-23.451-30.727-11.652-7.088-15.262-5.335-21.6-5.938-6.337-.603-13.377-.844-21.197-.908-8.361-.069-17.628.139-27.068.448-.266-.419-.519-.845-.792-1.262-5.773-8.8-9.952-17.72-28.32-24.42-4.962-1.81-8.247-2.426-10.776-2.57z" style="fill-rule:evenodd;stroke:none;stroke-opacity:1" transform="translate(.005 -6.835) scale(.97686)"/><g clip-path="url(#h)" transform="translate(.005 -6.835) scale(.97686)"><path id="e" d="m158.18 302.059 197.116-139.576s54.127 75.593 70.295 118.615c13.372 35.583 17.38 74.26 20.863 112.113 2.653 28.833-.04 86.864-.04 86.864l-238.762.38s2.426-14.561 5.632-31.677c6.894-36.811 18.977-74.204 3.198-105.74-10.63-21.242-58.301-40.98-58.301-40.98z" style="fill:url(#i);fill-rule:evenodd;stroke-linecap:round;stroke-linejoin:round"/><path d="m156.547 285.177 175.02-103.926s51.517 112.76 20.018 153.723c-41.976 54.589-204.835 26.833-204.835 26.833z" style="display:inline;fill:none;fill-rule:evenodd;stroke:#121212;stroke-width:13.0182;stroke-linecap:round;stroke-linejoin:round;stroke-opacity:1"/><path d="m77.228 260.86 273.936-1.596s39.458 117.524 3.853 154.973C307.568 464.143 148.5 419.53 148.5 419.53z" style="display:inline;fill:none;fill-rule:evenodd;stroke:#121212;stroke-width:13.0182;stroke-linecap:round;stroke-linejoin:round;stroke-opacity:1"/><path d="m329.334 275.894 32.54-146.372 85.534 123.915s-59.658 82.003-98.498 70.776c-16.694-4.826-19.576-48.319-19.576-48.319z" style="fill:#ccc;fill-opacity:1;fill-rule:evenodd;stroke:#adadad;stroke-width:20;stroke-linecap:round;stroke-linejoin:round;stroke-dasharray:none;stroke-opacity:1"/><path d="M360.355 327.998c5.868-13.773 28.578-12.385 37.9-24.101 15.045-18.913 24.155-68.36 24.155-68.36l42.165 110.662s-61.144 59.63-91.57 44.574c-19.133-9.466-21.017-43.138-12.65-62.775z" style="fill:#ccc;fill-opacity:1;fill-rule:evenodd;stroke:#adadad;stroke-width:20;stroke-linecap:round;stroke-linejoin:round;stroke-dasharray:none;stroke-opacity:1"/><path d="M374.963 397.41c7.604-12.897 29.943-8.577 40.704-18.986 17.37-16.803 32.813-64.653 32.813-64.653l27.465 115.195s-68.357 51.2-96.576 32.329c-17.743-11.867-15.247-45.498-4.406-63.886z" style="fill:#ccc;fill-opacity:1;fill-rule:evenodd;stroke:#adadad;stroke-width:20;stroke-linecap:round;stroke-linejoin:round;stroke-dasharray:none;stroke-opacity:1"/><path d="M377.337 460.965c10.037-11.108 31.055-2.394 43.685-10.432 20.389-12.976 45.118-56.754 45.118-56.754l3.794 118.362s-77.24 36.444-101.099 12.294c-15.002-15.185-5.808-47.632 8.502-63.47z" style="fill:#ccc;fill-opacity:1;fill-rule:evenodd;stroke:#adadad;stroke-width:20;stroke-linecap:round;stroke-linejoin:round;stroke-dasharray:none;stroke-opacity:1"/></g><g style="stroke:#b2b2b2;stroke-opacity:1"><path stroke="none" d="M47.278 229.89h319.705s-4.6 38.81-18.235 50.311c-47.778 40.304-113.126 33.103-176.354 33.282-17.56.05-53.24 1.519-78.201-6.28-18.237-5.7-42.664-12.202-49.583-28.76-1.706-4.083-3.332-12.757-3.332-12.757z" style="fill:url(#j);fill-rule:evenodd;stroke:none" transform="translate(.005 -6.835) scale(.97686)"/><path stroke="none" d="M180.444 124.134s78.941-35.146 120.227-47.475c27.32-8.158 76.321-20.065 83.756-17.353 8.211 2.996 19 19.969 16.63 24.822-3.209 6.574-21.254 11.044-30.2 18.836-8.922 7.77-19.89 25.207-22.74 27.252-4.05 2.908-123.982 48.477-123.982 48.477s-52.366-51.734-43.69-54.56z" style="fill:#999;fill-rule:evenodd;stroke:none;stroke-opacity:1" transform="translate(.005 -6.835) scale(.97686)"/><g clip-path="url(#k)" transform="translate(.005 -6.835) scale(.97686)"><path id="f" d="M451.527 80.508c-24.517-.201-58.666 1.671-81.673 3.828-49.924 4.68-138.985 24.158-157.57 28.287a143.46 143.46 0 0 0-7.159 1.572l-.207.045c-.04.005-.061.033-.1.04-33.16 8.303-64.012 27.909-95.324 42.327-24.309 11.194-55.203 16.256-70.674 38.094-11.765 16.607-14.097 40.486-9.504 60.313 2.033 8.773 7.888 17.327 15.512 22.12 7.133 4.485 24.942 4.108 24.942 4.108s14.083 30.055 26.47 30.055c11.852 0 26.469-29.947 26.469-29.947l154.846-.198s15.208-25.75 27.041-34.176c19.23-13.694 66.855-5.524 66.855-23.363 0-20.22.802-24.834-3.48-39.392a285.822 285.822 0 0 0-3.13-9.883c26.755-4.742 49.73-8.936 51.778-9.865 4.142-1.88 22.513-21.274 35.828-28.895 13.353-7.642 37.435-8.754 43.182-16.3 4.243-5.573-5.175-29.893-14.86-35.784-3.287-2-14.531-2.866-29.242-2.986z" style="display:inline;fill:url(#l);fill-rule:evenodd;stroke:none;stroke-opacity:1"/><g stroke="none"><path d="m129.787 126.622 173.997-47.788s30.029 94.415 11.284 116.769c-14.792 17.64-136.494 46.484-151.18 40.108-7.74-3.36-16.374-16.952-25.253-51.287-7.873-30.446-8.848-57.802-8.848-57.802z" style="display:inline;fill:url(#m);fill-rule:evenodd;stroke:none;stroke-linecap:round;stroke-linejoin:round;stroke-opacity:1"/><path d="m73.563 138.422 43.267-17.926s-1.766 9.63-.353 31.264c1.778 27.2 6.02 38.8 10.186 53.19 6.079 21 12.952 32.068 10.24 35.97-4.186 6.022-26.623 13.02-33.626 8.751-6.732-4.103-29.714-111.25-29.714-111.25z" style="display:inline;fill:url(#n);fill-rule:evenodd;stroke:none;stroke-linecap:round;stroke-linejoin:round;stroke-opacity:1"/></g><g style="display:inline" transform="matrix(1.23897 -.09348 .08855 1.2754 -103.893 -40.789)"><rect width="18.502" height="33.168" x="350.327" y="131.413" ry="9.251" style="fill:#cba6f7;fill-opacity:1;fill-rule:evenodd;stroke:#dbdbdb;stroke-width:5.11846;stroke-dasharray:none;stroke-opacity:1"/><rect width="18.502" height="33.168" x="381.124" y="130.211" ry="9.251" style="fill:#cba6f7;fill-opacity:1;fill-rule:evenodd;stroke:#dbdbdb;stroke-width:5.11846;stroke-dasharray:none;stroke-opacity:1"/><rect width="18.502" height="33.168" x="411.86" y="129.85" ry="9.251" style="fill:#cba6f7;fill-opacity:1;fill-rule:evenodd;stroke:#dbdbdb;stroke-width:5.11846;stroke-dasharray:none;stroke-opacity:1"/></g></g><g stroke="none" style="display:inline"><path d="M210.998 152.104c-6.333.132-13.08 2.133-19.528 5.37a11.127 11.127 0 0 1 3.393 8.024v34.088c0 6.188-4.98 11.169-11.168 11.169a11.144 11.144 0 0 1-11.17-11.169V171.65c-11.282 12.036-16.886 27.282-8.135 38.683 14.328 18.666 53.496 9.457 69.973-4.783 14.814-12.801 11.261-44.895-15.101-52.436-2.624-.75-5.402-1.069-8.264-1.01z" style="display:inline;fill:#cba6f7;fill-opacity:.74901962;fill-rule:evenodd;stroke:none;stroke-width:11.1427;stroke-linecap:round;stroke-opacity:1;filter:url(#o)" transform="translate(.005 -6.835) scale(.97686)"/><path d="M210.998 152.104c-6.333.132-13.08 2.133-19.528 5.37a11.127 11.127 0 0 1 3.393 8.024v34.088c0 6.188-4.98 11.169-11.168 11.169a11.144 11.144 0 0 1-11.17-11.169V171.65c-11.282 12.036-16.886 27.282-8.135 38.683 14.328 18.666 53.496 9.457 69.973-4.783 14.814-12.801 11.261-44.895-15.101-52.436-2.624-.75-5.402-1.069-8.264-1.01z" style="display:inline;fill:#cba6f7;fill-rule:evenodd;stroke:none;stroke-width:11.1427;stroke-linecap:round;stroke-opacity:1;fill-opacity:.74901962" transform="translate(.005 -6.835) scale(.97686)"/></g><g stroke="none" style="display:inline" transform="matrix(.9478 .23651 -.23651 .9478 -.598 -5.48)"><circle cx="116.027" cy="212.236" r="8.19" style="fill:#000;fill-opacity:.9;fill-rule:evenodd;stroke:none;stroke-width:5.11846;stroke-linecap:round;stroke-linejoin:round;stroke-dasharray:none;stroke-dashoffset:320;stroke-opacity:1"/><circle cx="85.813" cy="223.026" r="8.19" style="fill:#000;fill-opacity:.9;fill-rule:evenodd;stroke:none;stroke-width:5.11846;stroke-linecap:round;stroke-linejoin:round;stroke-dasharray:none;stroke-dashoffset:320;stroke-opacity:1"/><circle cx="96.129" cy="190.225" r="8.19" style="fill:#000;fill-opacity:.9;fill-rule:evenodd;stroke:none;stroke-width:5.11846;stroke-linecap:round;stroke-linejoin:round;stroke-dasharray:none;stroke-dashoffset:320;stroke-opacity:1"/></g></g></g></svg>